PathFileType	4	(X/Y/Z)	C:\Users\Willi\SynologyDrive\Deimel_MSc_Deadlift\Athlete_03\Athlete_3_22_07_06\dl_85\marker_experimental.trc
DataRate	CameraRate	NumFrames	NumMarkers	Units	OrigDataRate	OrigDataStartFrame	OrigNumFrames
200.000000	200.000000	4	59	mm	200.000000	998	1597
Frame#	Time	BR			GLAB			RFHD			LFHD			C7			T6			SPINMOL			SPINM2			SPINM3			BELTOL			BELT2			BELT3			SACROL			SACR2			SACR3			LTHOL			LTH2			LTH3			LSHAOL			LSHA2			LSHA3			LHEE			LTOE			LM5			RTHOL			RTH2			RTH3			RSHAOL			RSHA2			RSHA3			RHEE			RTOE			RM5			STRN			XIPH			LACR			LUAOL			LUA3			LLAOL			LLA2			LLA3			LWRU			RACR			RUAOL			RUA2			RUA3			RLAOL			RLA2			RLA3			RWRU			LUA2			BL			T12			USERMO0			USERMO1			USERMO2			USERMO3			USERMO4			USERMO5			
		X1	Y1	Z1	X2	Y2	Z2	X3	Y3	Z3	X4	Y4	Z4	X5	Y5	Z5	X6	Y6	Z6	X7	Y7	Z7	X8	Y8	Z8	X9	Y9	Z9	X10	Y10	Z10	X11	Y11	Z11	X12	Y12	Z12	X13	Y13	Z13	X14	Y14	Z14	X15	Y15	Z15	X16	Y16	Z16	X17	Y17	Z17	X18	Y18	Z18	X19	Y19	Z19	X20	Y20	Z20	X21	Y21	Z21	X22	Y22	Z22	X23	Y23	Z23	X24	Y24	Z24	X25	Y25	Z25	X26	Y26	Z26	X27	Y27	Z27	X28	Y28	Z28	X29	Y29	Z29	X30	Y30	Z30	X31	Y31	Z31	X32	Y32	Z32	X33	Y33	Z33	X34	Y34	Z34	X35	Y35	Z35	X36	Y36	Z36	X37	Y37	Z37	X38	Y38	Z38	X39	Y39	Z39	X40	Y40	Z40	X41	Y41	Z41	X42	Y42	Z42	X43	Y43	Z43	X44	Y44	Z44	X45	Y45	Z45	X46	Y46	Z46	X47	Y47	Z47	X48	Y48	Z48	X49	Y49	Z49	X50	Y50	Z50	X51	Y51	Z51	X52	Y52	Z52	X53	Y53	Z53	X54	Y54	Z54	X55	Y55	Z55	X56	Y56	Z56	X57	Y57	Z57	X58	Y58	Z58	X59	Y59	Z59	

999	4.99	253.8663024902344	399.3704833984375	-97.93956756591794	526.7518920898438	1141.65234375	-1205.369140625	510.9512023925781	1203.512817382812	-1128.449829101562	506.9982604980469	1198.961303710938	-1287.038330078125	291.6450805664062	1237.0478515625	-1206.767700195312	113.0164184570312	1146.170776367188	-1213.72509765625	89.13727569580078	1132.818115234375	-1216.057983398438	39.72693634033203	1101.937744140625	-1161.847778320312	40.3414421081543	1095.120727539062	-1210.774780273438	-32.15401458740234	1060.295776367188	-1215.101196289062	-75.64006805419922	1017.350036621094	-1163.590454101562	-79.40386199951172	1019.789978027344	-1213.528564453125	-124.8525848388672	958.9984130859376	-1234.365478515625	-114.4698791503906	963.5828247070314	-1183.987548828125	-163.5529022216797	921.1045532226564	-1195.458618164062	32.57439422607422	712.7066040039064	-1443.1669921875	25.19721603393555	633.5214233398439	-1433.84521484375	66.88451385498047	661.2253417968751	-1441.4365234375	130.2845764160156	342.6582336425782	-1455.680786132812	87.35781860351562	277.0301818847657	-1450.84912109375	136.3267517089844	281.2451782226564	-1449.3759765625	39.70307540893555	67.50260925292977	-1372.767822265625	249.7129669189453	73.36158752441415	-1377.391845703125	207.1063690185547	53.75136184692392	-1484.926147460938	43.60767364501953	680.6644897460939	-990.5155029296875	118.0629959106445	652.2600097656251	-984.4840087890625	75.03431701660156	626.9956054687501	-989.2554931640625	119.596794128418	337.7587585449219	-972.1470336914062	157.6146850585938	268.5075988769532	-977.3995361328125	108.4152145385742	278.0684509277344	-979.8607788085938	45.59336853027344	65.66133117675788	-1069.472778320312	253.2574310302734	66.38114166259771	-1041.5126953125	201.7534484863281	67.90262603759771	-945.0175170898438	346.2132568359375	1075.240112304688	-1214.597412109375	285.8594360351562	931.3574829101564	-1203.03173828125	298.8711242675781	1107.694091796875	-1417.903686523438	265.2308959960938	965.2692260742189	-1472.266845703125	280.2758483886719	901.1959228515626	-1469.555541992188	269.925048828125	678.5209960937501	-1471.066528320312	250.2128295898438	616.9973754882814	-1482.439453125	281.9048156738281	621.1417846679689	-1444.573974609375	261.4595947265625	525.4067382812501	-1464.870849609375	308.562255859375	1100.329345703125	-1013.035522460937	281.8302612304688	923.8048706054689	-981.4302978515625	294.7069396972656	865.4577026367189	-1008.960754394531	271.8589172363281	860.4631958007814	-964.4257202148438	274.4809875488281	664.3744506835939	-972.7308349609375	284.2235717773438	608.5222778320314	-1003.530578613281	264.0435180664062	603.1674804687501	-956.6339111328125	260.4385681152344	525.7891845703126	-957.2884521484375	233.8534088134766	909.6245727539064	-1490.571411132812	201.2453765869141	396.0678100585939	-2320.416259765625	16.5231761932373	1067.432861328125	-1212.230834960938	0.1288589984178543	0.02890099957585336	-0.1603879928588867	0.02944619953632355	0.08651699870824815	-0.131522998213768	0.0589854009449482	0.08513379842042923	-0.06590080261230469	0.06313010305166245	1.335000038146973	-2.082489967346191	2.052089929580688	2.755559921264648	-1.966590046882629	2.747260093688965	0	0	
1000	4.995	253.9073333740234	397.3253784179688	-97.93612670898435	527.4446411132812	1139.294921875	-1205.262817382812	511.6737060546875	1201.228881835938	-1128.471435546875	507.7881774902344	1196.59130859375	-1287.062255859375	292.5537719726562	1235.023315429688	-1206.872924804688	113.6794815063477	1144.814453125	-1213.767211914062	89.75079345703125	1131.548706054688	-1216.093017578125	40.26737213134766	1100.810668945312	-1161.862426757812	40.82034301757812	1094.024780273438	-1210.7919921875	-31.80426979064941	1059.43603515625	-1215.099975585938	-75.40239715576172	1016.615539550781	-1163.577270507812	-79.18051910400391	1019.077209472656	-1213.51318359375	-124.8125915527344	958.3185424804689	-1234.328979492188	-114.3978042602539	962.8820800781251	-1183.964233398438	-163.573974609375	920.5101928710939	-1195.410034179688	32.58544540405273	712.1444091796876	-1443.155151367188	25.40318870544434	632.9526977539064	-1433.831665039062	67.02460479736328	660.7549438476564	-1441.425659179688	130.6156616210938	342.612518310547	-1455.617431640625	87.69320678710938	276.9723510742189	-1450.777221679688	136.6068420410156	281.1612548828126	-1449.302490234375	39.70149230957031	67.50138854980477	-1372.734619140625	249.7120513916016	73.3422164916993	-1377.362182617188	207.1089019775391	53.77624893188486	-1484.8994140625	43.90172576904297	680.1898803710939	-990.6168823242188	118.4440994262695	652.0014648437501	-984.6861572265625	75.47612762451172	626.6098022460939	-989.3421630859375	120.0619735717773	337.7865905761719	-972.1998901367188	158.0265655517578	268.4116821289063	-977.5288696289062	108.8438262939453	278.0581665039063	-979.9266967773438	45.60138702392578	65.66991424560554	-1069.475708007812	253.2566070556641	66.36502838134771	-1041.538940429688	201.7776184082031	67.92620849609381	-945.0533447265625	346.6328125	1073.029174804688	-1214.703369140625	285.6836547851562	929.3886108398439	-1203.1328125	299.5457763671875	1105.623779296875	-1417.954345703125	265.8673400878906	963.2922973632814	-1472.322631835938	280.8557434082031	899.2016601562501	-1469.555541992188	270.2158813476562	676.5298461914064	-1471.18017578125	250.4660034179688	615.0065917968751	-1482.528076171875	282.1296081542969	619.1473999023439	-1444.633178710938	261.61279296875	523.4216918945314	-1464.921142578125	309.2833862304688	1098.203735351562	-1013.186584472656	282.3758544921875	921.7775878906251	-981.5601806640625	295.1210327148438	863.4271850585939	-1009.107971191406	272.3533630371094	858.4512329101564	-964.5372924804688	274.72216796875	662.3674316406251	-972.7532348632812	284.393310546875	606.4999389648439	-1003.537963867188	264.2386779785156	601.1750488281251	-956.6284790039062	260.5064086914062	523.7991333007814	-957.2730712890625	234.4817047119141	907.6596679687501	-1490.668701171875	201.300537109375	394.0539550781251	-2320.392333984375	16.8956298828125	1066.438720703125	-1212.266235351562	0.1302250027656555	0.03036490082740785	-0.1625079959630966	0.02928760088980198	0.08834300190210344	-0.1304270029067993	0.05927849933505058	0.08428850024938583	-0.06594929844141006	0.06387390196323395	1.431640028953552	-2.079859972000122	2.051539897918701	2.756400108337402	-1.966109991073608	2.751300096511841	0	0	
1001	5	253.9412689208984	395.268798828125	-97.93608856201169	528.1408081054688	1136.936767578125	-1205.175659179688	512.4039306640625	1198.941284179688	-1128.504150390625	508.5761108398438	1194.221069335938	-1287.096923828125	293.4704895019531	1232.993774414062	-1206.9755859375	114.3523406982422	1143.454711914062	-1213.80615234375	90.37157440185547	1130.279418945312	-1216.126220703125	40.81655120849609	1099.683715820312	-1161.873657226562	41.30935287475586	1092.927856445312	-1210.805908203125	-31.44750213623047	1058.57763671875	-1215.096923828125	-75.1575927734375	1015.884826660156	-1163.560546875	-78.94983673095703	1018.366394042969	-1213.494506835938	-124.771354675293	957.6445312500001	-1234.2783203125	-114.3181228637695	962.1853027343751	-1183.935302734375	-163.5865631103516	919.9188842773439	-1195.35302734375	32.60801696777344	711.5866088867189	-1443.1357421875	25.61798095703125	632.3875122070314	-1433.8125	67.17436981201172	660.2871704101564	-1441.40625	130.9511108398438	342.5690002441407	-1455.551635742188	88.02635192871094	276.918670654297	-1450.70849609375	136.8895721435547	281.0793457031251	-1449.228881835938	39.69975662231445	67.50093841552743	-1372.701416015625	249.7110290527344	73.32289886474618	-1377.332275390625	207.1108551025391	53.8009796142579	-1484.8720703125	44.18965530395508	679.7171630859376	-990.7077026367188	118.8173446655273	651.7416992187501	-984.876220703125	75.90940093994141	626.2250976562501	-989.41796875	120.5294647216797	337.8039855957032	-972.2435913085938	158.4345092773438	268.3133850097657	-977.653076171875	109.2696533203125	278.0433959960938	-979.9833374023438	45.60870361328125	65.67848205566413	-1069.47705078125	253.2557983398438	66.34958648681646	-1041.564453125	201.7998352050781	67.94989013671881	-945.0875854492188	347.0565185546875	1070.814819335938	-1214.81005859375	285.5113220214844	927.4183959960939	-1203.247680664062	300.2266845703125	1103.547241210938	-1418.00244140625	266.4931945800781	961.3063354492189	-1472.383544921875	281.4134826660156	897.1962890625001	-1469.560791015625	270.5040588378906	674.5334472656251	-1471.305908203125	250.7120819091797	613.0096435546876	-1482.621215820312	282.3535766601562	617.1505126953126	-1444.702514648438	261.7663269042969	521.4323120117189	-1464.974975585938	310.0095520019531	1096.07275390625	-1013.333801269531	282.9223937988281	919.7460937500001	-981.692138671875	295.5348815917969	861.3912353515626	-1009.259521484375	272.8470764160156	856.4345092773439	-964.652587890625	274.9629516601562	660.3571777343751	-972.7758178710938	284.5625610351562	604.4733276367189	-1003.545654296875	264.4387817382812	599.1775512695314	-956.6289672851562	260.5726928710938	521.8052978515626	-957.2590942382812	235.0881042480469	905.6929931640626	-1490.768310546875	201.3557586669922	392.0426330566407	-2320.37255859375	17.27540588378906	1065.446655273438	-1212.297973632812	0.1314049959182739	0.03205399960279465	-0.1633870005607605	0.0293102003633976	0.0909245014190674	-0.1291040033102036	0.05910729989409447	0.08362390100955963	-0.0666980966925621	0.06498540192842484	1.517420053482056	-2.077320098876953	2.051179885864258	2.757280111312866	-1.965960025787353	2.757570028305054	0	0	
1002	5.005	253.9688110351562	393.2018432617188	-97.93949890136716	528.8401489257812	1134.579956054688	-1205.110961914062	513.1417846679688	1196.650756835938	-1128.548217773438	509.3608093261719	1191.852294921875	-1287.142944335938	294.3947143554688	1230.95947265625	-1207.074951171875	115.0350036621094	1142.091918945312	-1213.842529296875	90.99917602539062	1129.0107421875	-1216.15771484375	41.37387466430664	1098.55712890625	-1161.882202148438	41.80799102783203	1091.830322265625	-1210.817138671875	-31.08400726318359	1057.720825195312	-1215.093994140625	-74.90640258789062	1015.158264160156	-1163.542358398438	-78.71204376220703	1017.65771484375	-1213.474731445312	-124.7288589477539	956.9763183593751	-1234.216796875	-114.2318725585938	961.4921875000001	-1183.9033203125	-163.5913238525391	919.3298339843751	-1195.291625976562	32.64727020263672	711.0354614257814	-1443.106323242188	25.84525871276855	631.8275146484376	-1433.788330078125	67.33804321289062	659.8234863281251	-1441.37646484375	131.2931823730469	342.5285949707032	-1455.48291015625	88.36002349853516	276.8694152832032	-1450.642822265625	137.177490234375	280.9998168945314	-1449.154663085938	39.69812774658203	67.50182342529305	-1372.668701171875	249.7101440429688	73.30349731445321	-1377.302001953125	207.1122894287109	53.82549667358408	-1484.844116210938	44.47052764892578	679.2474975585939	-990.7886352539062	119.1816940307617	651.4816284179689	-985.0542602539062	76.33319854736328	625.8425903320314	-989.4835815429688	120.9992599487305	337.8095703125001	-972.279052734375	158.8373718261719	268.2127380371094	-977.7724609375	109.6913299560547	278.0240478515626	-980.03173828125	45.61532211303711	65.68681335449226	-1069.477416992188	253.2549743652344	66.3348007202149	-1041.589477539062	201.8192443847656	67.97409820556646	-945.1200561523438	347.4840698242188	1068.596923828125	-1214.9169921875	285.341796875	925.4468383789064	-1203.374877929688	300.9124145507812	1101.46435546875	-1418.048095703125	267.1030578613281	959.3107299804689	-1472.4501953125	281.9434509277344	895.1793212890626	-1469.572265625	270.7879028320312	672.5317382812501	-1471.44140625	250.9494171142578	611.0064697265626	-1482.71728515625	282.57568359375	615.1509399414064	-1444.781372070312	261.9193725585938	519.4387207031251	-1465.03173828125	310.7411193847656	1093.9345703125	-1013.47802734375	283.4678039550781	917.7090454101564	-981.8276977539062	295.9452514648438	859.3484497070314	-1009.418701171875	273.3380737304688	854.4117431640626	-964.7738037109375	275.2018127441406	658.3430786132814	-972.7987060546875	284.7300720214844	602.4418334960939	-1003.553894042969	264.6422424316406	597.1744384765626	-956.6357421875	260.6368103027344	519.8074951171876	-957.246826171875	235.6658630371094	903.7239379882814	-1490.869384765625	201.4119567871094	390.0352783203126	-2320.35791015625	17.66207885742188	1064.456787109375	-1212.327026367188	0.1323450058698654	0.0339467003941536	-0.1631830036640167	0.02951869927346706	0.09419140219688417	-0.1274340003728867	0.05852309986948967	0.08314179629087448	-0.06803759932518005	0.06644520163536072	1.589380025863648	-2.075160026550293	2.051170110702515	2.75819993019104	-1.966310024261474	2.765439987182617	0	0	
